<svg width="260" height="260" viewBox="0 0 260 260" fill="none" xmlns="http://www.w3.org/2000/svg">
<rect width="260" height="260" rx="80" fill="#00CEB5"/>
<path d="M127.6 52.6001C157.733 52.6001 179.933 59.5334 194.2 73.4001C208.467 87.2668 215.6 106.133 215.6 130C215.6 153.733 208.467 172 194.2 184.8C179.933 197.6 157.733 204 127.6 204C109.2 204 92.2 200.8 76.6 194.4C61 188 49.8667 176.733 43.2 160.6C60.2667 153.267 74.2667 146.667 85.2 140.8C88.2667 148.8 93.0667 154.667 99.6 158.4C106.133 162 114.933 163.8 126 163.8C136.533 163.8 145.333 162.2 152.4 159C159.6 155.667 164.733 150.867 167.8 144.6H97.4V111H166.6C163.533 105.267 158.8 100.8 152.4 97.6001C146.133 94.2668 138.333 92.6001 129 92.6001C120.333 92.6001 111.8 94.4001 103.4 98.0001C95.1333 101.6 89.0667 107.133 85.2 114.6C69.0667 106.333 55 100.133 43 96.0001C57.2667 67.0668 85.4667 52.6001 127.6 52.6001Z" fill="white"/>
</svg>
