<svg width="193" height="26" viewBox="0 0 193 26" fill="none" xmlns="http://www.w3.org/2000/svg">
<path d="M192.144 19.5523H186.45V10.1403H182.758L182.732 10.9463C182.715 11.7783 182.68 12.5149 182.628 13.1563C182.594 13.7803 182.507 14.4563 182.368 15.1843C181.779 18.3563 179.378 19.9423 175.166 19.9423V15.8083C175.981 15.7043 176.536 15.4529 176.83 15.0543C177.125 14.6383 177.272 13.9969 177.272 13.1303V5.22626L192.144 5.25226V19.5523Z" fill="black"/>
<path d="M162.384 12.9223C162.523 13.6849 162.861 14.3089 163.398 14.7943C163.953 15.2623 164.733 15.4963 165.738 15.4963C166.466 15.4963 167.151 15.3576 167.792 15.0803C168.434 14.7856 168.945 14.3783 169.326 13.8583C170.488 14.4303 172.03 15.0456 173.954 15.7043C173.417 16.9176 172.438 17.8883 171.016 18.6163C169.612 19.3269 167.775 19.6823 165.504 19.6823C162.558 19.6823 160.374 19.0063 158.952 17.6543C157.548 16.2849 156.846 14.4909 156.846 12.2723C156.846 10.1056 157.548 8.34627 158.952 6.99427C160.356 5.64226 162.54 4.96626 165.504 4.96626C167.272 4.96626 168.806 5.26093 170.106 5.85026C171.406 6.4396 172.403 7.26293 173.096 8.32026C173.79 9.36026 174.136 10.5563 174.136 11.9083C174.136 12.3589 174.119 12.6969 174.084 12.9223H162.384ZM165.868 8.89226C165.002 8.89226 164.291 9.05693 163.736 9.38627C163.182 9.7156 162.792 10.1663 162.566 10.7383H168.702C168.494 10.1836 168.156 9.7416 167.688 9.41226C167.22 9.0656 166.614 8.89226 165.868 8.89226Z" fill="black"/>
<path d="M150.85 12.3763C153.814 12.3763 155.296 13.3209 155.296 15.2103C155.296 16.5623 154.776 17.6023 153.736 18.3303C152.713 19.0583 150.858 19.4223 148.172 19.4223H139.384C139.47 17.4463 139.514 15.0803 139.514 12.3243C139.514 9.56827 139.47 7.20226 139.384 5.22626H144.766V5.25226H148.146C149.775 5.25226 151.049 5.39093 151.968 5.66826C152.904 5.92826 153.562 6.3096 153.944 6.81226C154.325 7.31493 154.516 7.95626 154.516 8.73626C154.516 10.4869 153.294 11.7003 150.85 12.3763ZM144.766 8.81427V10.6343H146.742C147.539 10.6343 148.102 10.5649 148.432 10.4263C148.761 10.2703 148.926 10.0016 148.926 9.62027C148.926 9.3256 148.752 9.1176 148.406 8.99626C148.076 8.87493 147.522 8.81427 146.742 8.81427H144.766ZM146.742 15.8343C147.73 15.8343 148.406 15.7649 148.77 15.6263C149.134 15.4703 149.316 15.2016 149.316 14.8203C149.316 14.4909 149.125 14.2483 148.744 14.0923C148.362 13.9363 147.695 13.8583 146.742 13.8583H144.766V15.8343H146.742Z" fill="black"/>
<path d="M128.754 4.99226C131.701 4.99226 133.902 5.67693 135.358 7.04627C136.831 8.39827 137.568 10.2183 137.568 12.5063C137.568 14.7943 136.831 16.5623 135.358 17.8103C133.902 19.0583 131.701 19.6823 128.754 19.6823C126.969 19.6823 125.313 19.3789 123.788 18.7723C122.28 18.1483 121.205 17.0476 120.564 15.4703C122.401 14.6729 123.762 14.0316 124.646 13.5463C124.958 14.2049 125.426 14.6989 126.05 15.0283C126.691 15.3576 127.549 15.5223 128.624 15.5223C130.687 15.5223 132.021 14.9936 132.628 13.9363H125.842V10.6603H132.498C131.874 9.65493 130.669 9.15226 128.884 9.15226C128.069 9.15226 127.246 9.30826 126.414 9.62027C125.599 9.93226 125.01 10.4003 124.646 11.0243C123.051 10.2096 121.682 9.60293 120.538 9.20426C121.925 6.39626 124.663 4.99226 128.754 4.99226Z" fill="black"/>
<path d="M113.066 4.96626C114.193 4.96626 115.207 5.28693 116.108 5.92826C117.009 6.5696 117.711 7.44493 118.214 8.55427C118.717 9.64627 118.968 10.8509 118.968 12.1683C118.968 13.4683 118.717 14.6989 118.214 15.8603C117.711 17.0043 117.001 17.9316 116.082 18.6423C115.181 19.3356 114.149 19.6823 112.988 19.6823C111.636 19.6823 110.475 19.4049 109.504 18.8503C108.551 18.2783 107.84 17.4029 107.372 16.2243C107.372 17.2123 107.407 18.7983 107.476 20.9823C107.545 23.0969 107.58 24.5876 107.58 25.4543H101.704C101.808 22.2303 101.86 18.8589 101.86 15.3403C101.86 11.8216 101.808 8.45026 101.704 5.22626H106.696L107.45 8.47626C107.935 7.26293 108.663 6.37893 109.634 5.82427C110.605 5.25226 111.749 4.96626 113.066 4.96626ZM110.284 15.0023C111.064 15.0023 111.714 14.7596 112.234 14.2743C112.771 13.7716 113.04 13.1216 113.04 12.3243C113.04 11.4403 112.797 10.7209 112.312 10.1663C111.827 9.6116 111.168 9.33426 110.336 9.33426C109.383 9.33426 108.663 9.56826 108.178 10.0363C107.693 10.4869 107.45 11.2496 107.45 12.3243C107.45 12.9309 107.606 13.4423 107.918 13.8583C108.23 14.2569 108.603 14.5516 109.036 14.7423C109.469 14.9156 109.885 15.0023 110.284 15.0023Z" fill="black"/>
<path d="M99.6123 6.00626C96.891 5.9196 94.2477 5.8676 91.6823 5.85026V19.4223H85.1823V5.85026C82.5997 5.8676 79.965 5.9196 77.2783 6.00626V0.546265H99.6123V6.00626Z" fill="black"/>
<path d="M75.076 12.6362C75.856 13.2602 76.454 13.9622 76.87 14.7422C77.286 15.5222 77.676 16.4582 78.04 17.5502C78.404 18.5036 78.664 19.1276 78.82 19.4222H72.554C72.502 19.3009 72.398 18.9196 72.242 18.2782C72.1034 17.6369 71.9647 17.1256 71.826 16.7442C71.6874 16.3456 71.4794 15.9989 71.202 15.7042C70.7687 15.2362 70.2834 14.9329 69.746 14.7942C69.2087 14.6556 68.4114 14.5862 67.354 14.5862V19.4222H61.79C61.8767 17.4462 61.92 15.0802 61.92 12.3242C61.92 9.56824 61.8767 7.20224 61.79 5.22624H67.354V10.3222H67.458C69.5207 8.25958 71.02 6.56091 71.956 5.22624H78.82L72.736 11.2842C73.6374 11.6656 74.4174 12.1162 75.076 12.6362Z" fill="#00CEB5"/>
<path d="M59.7086 5.22624C59.622 7.73958 59.5786 10.0102 59.5786 12.0382C59.5786 14.0316 59.622 16.3022 59.7086 18.8502H54.3786L54.6646 9.85424L50.6866 18.8502H43.4326C43.5366 16.5622 43.5886 14.2916 43.5886 12.0382C43.5886 9.75024 43.5366 7.47958 43.4326 5.22624H48.5546L48.2946 14.4562L52.2726 5.22624H59.7086Z" fill="#00CEB5"/>
<path d="M24.5674 5.25224H41.3634V19.5522H35.6694V10.1402H30.2614V19.5522H24.5674V5.25224Z" fill="#00CEB5"/>
<path d="M11.038 0.000244141C14.9554 0.000244141 17.8414 0.901577 19.696 2.70424C21.5507 4.50691 22.478 6.95958 22.478 10.0622C22.478 13.1476 21.5507 15.5222 19.696 17.1862C17.8414 18.8502 14.9554 19.6822 11.038 19.6822C8.64604 19.6822 6.43604 19.2662 4.40804 18.4342C2.38004 17.6022 0.932706 16.1376 0.066039 14.0402C2.28471 13.0869 4.10471 12.2289 5.52604 11.4662C5.92471 12.5062 6.54871 13.2689 7.39804 13.7542C8.24737 14.2222 9.39137 14.4562 10.83 14.4562C12.1994 14.4562 13.3434 14.2482 14.262 13.8322C15.198 13.3989 15.8654 12.7749 16.264 11.9602H7.11204V7.59225H16.108C15.7094 6.84691 15.094 6.26624 14.262 5.85024C13.4474 5.41691 12.4334 5.20024 11.22 5.20024C10.0934 5.20024 8.98404 5.43424 7.89204 5.90224C6.81737 6.37024 6.02871 7.08958 5.52604 8.06025C3.42871 6.98558 1.60004 6.17958 0.0400391 5.64224C1.89471 1.88091 5.56071 0.000244141 11.038 0.000244141Z" fill="#00CEB5"/>
</svg>
